# xmcd
#
# Track frame offsets:
#  150
#  11414
#  28579
#  56841
#  67353
#  79250
#  95939
#  110917
#  126985
#  135161
#  161208
#  171592
#  182958
#  187719
#  201098
#  210607
#  227093
#  230470
#  241824
#
# Disc length: 3428 seconds
#
# Revision: 0
# Processed by: cddbd v1.5.1PL0 Copyright (c) Steve Scherf et al.
# Submitted via: AltoMP3_Maker 3.0
#
DISCID=180d6213
DTITLE=Various Artist - Elko! A Cowboy's Gathering (Disk 2)
DYEAR=1900
DGENRE=
TTITLE0=We are the Poets
TTITLE1=Jerry Ambler
TTITLE2=Square-Head
TTITLE3=Cattle in the Cane
TTITLE4=Equus Caballus
TTITLE5=Wild Places
TTITLE6=Saying Grace
TTITLE7=Hooves of the Horses
TTITLE8=Real Wealth
TTITLE9=Born to be a Cowboy
TTITLE10=Slant of Light
TTITLE11=Big Bad Bill
TTITLE12=Full Value
TTITLE13=Red River Rose
TTITLE14=Habitat
TTITLE15=All this Way for the Short Ride
TTITLE16=Rooster Poem
TTITLE17=Evening Chat
TTITLE18=The Campfire has gone out
EXTD=
EXTT0=
EXTT1=
EXTT2=
EXTT3=
EXTT4=
EXTT5=
EXTT6=
EXTT7=
EXTT8=
EXTT9=
EXTT10=
EXTT11=
EXTT12=
EXTT13=
EXTT14=
EXTT15=
EXTT16=
EXTT17=
EXTT18=
PLAYORDER=
